<?xml version="1.0" encoding="UTF-8"?>
<svg id="Layer_1" data-name="Layer 1" xmlns="http://www.w3.org/2000/svg" viewBox="0 0 24.07 24.01">
  <defs>
    <style>
      .cls-1 {
        fill: #0E1527;
        stroke-width: 0px;
      }
    </style>
  </defs>
  <g id="Layer_2" data-name="Layer 2">
    <g id="Layer_5" data-name="Layer 5">
      <path class="cls-1" d="m.46,16.51l11,7.32c.35.23.81.23,1.16,0l11-7.32c.29-.19.46-.51.45-.85v-7.32c0-.34-.16-.66-.45-.85L12.58.17c-.35-.23-.81-.23-1.16,0L.46,7.49C.17,7.68,0,8,0,8.34v7.32c0,.34.17.66.46.85Zm10.54,4.49L2.89,15.66l3.61-2.41,4.47,3,.03,4.75Zm2,0v-4.77l4.47-3,3.61,2.41-8.08,5.36Zm8.91-7.31l-2.56-1.69,2.59-1.73-.03,3.42ZM13,3l8.08,5.38-3.58,2.37-4.5-2.98V3Zm-1,6.6l3.64,2.4-3.64,2.44-3.64-2.44,3.64-2.4Zm-1-6.6v4.77l-4.47,3-3.64-2.43L11,3ZM2.06,10.27h0l2.59,1.73-2.59,1.73v-3.46Z"/>
    </g>
  </g>
</svg>