<?xml version="1.0" encoding="UTF-8"?>
<svg id="Layer_1" data-name="Layer 1" xmlns="http://www.w3.org/2000/svg" viewBox="0 0 24.59 21.99">
  <defs>
    <style>
      .cls-1 {
        fill: #0E1527;
        stroke-width: 0px;
      }
    </style>
  </defs>
  <path class="cls-1" d="m23.84,11.53c-.11,0-.21-.02-.31-.06l-6.44-2.88c-.38-.17-.55-.61-.38-.99.08-.17.21-.3.38-.38l6.44-2.87c.38-.17.82,0,.99.38.17.38,0,.82-.38.99l-4.91,2.19,4.91,2.2c.38.17.55.61.38.99-.12.27-.39.44-.68.44Z"/>
  <path class="cls-1" d="m15.07,21.99C7.99,21.99,1.8,17.21.02,10.37c-.1-.4.14-.81.54-.91s.81.14.91.54c1.61,6.19,7.2,10.5,13.59,10.5.41,0,.75.34.75.75s-.34.75-.75.75Z"/>
  <path class="cls-1" d="m12.49,15.76c-.41,0-.75-.34-.75-.75V.75c0-.41.34-.75.75-.75s.75.34.75.75v14.26c0,.41-.34.75-.75.75Z"/>
</svg>