<?xml version="1.0" encoding="UTF-8"?>
<svg id="Layer_1" data-name="Layer 1" xmlns="http://www.w3.org/2000/svg" viewBox="0 0 23.95 23.63">
  <defs>
    <style>
      .cls-1 {
        fill: #0E1527;
        stroke-width: 0px;
      }
    </style>
  </defs>
  <g id="Layer_2" data-name="Layer 2">
    <g id="github">
      <path class="cls-1" d="m11.95,0C5.33.03-.03,5.42,0,12.05c.02,5.47,3.74,10.24,9.04,11.58-.06-.19-.09-.38-.09-.58v-2.05h-1.51c-.77.04-1.5-.34-1.9-1-.4-.73-.46-1.85-1.44-2.53-.29-.23-.07-.49.27-.45.64.22,1.2.65,1.58,1.21.32.57.96.88,1.6.77.57,0,1.13-.04,1.69-.12.28-.83.84-1.54,1.59-2-4-.41-5.91-2.4-5.91-5.1.05-1.19.53-2.33,1.36-3.19-.28-.94-.62-2.86.11-3.59,1.21.02,2.36.56,3.14,1.48,1.89-.64,3.95-.64,5.84,0,.78-.93,1.93-1.47,3.15-1.48.73.73.38,2.66.1,3.59.82.88,1.29,2.03,1.33,3.23,0,2.7-1.9,4.68-5.89,5.1,1.15.75,1.85,2.02,1.89,3.39v2.74c0,.09,0,.17,0,.26,6.25-2.21,9.51-9.07,7.3-15.32C21.56,3.2,17.03,0,11.95,0Z"/>
    </g>
  </g>
</svg>