<?xml version="1.0" encoding="UTF-8"?>
<svg id="Layer_1" data-name="Layer 1" xmlns="http://www.w3.org/2000/svg" viewBox="0 0 22 22">
  <defs>
    <style>
      .cls-1 {
        fill: #0E1527;
        stroke-width: 0px;
      }
    </style>
  </defs>
  <g id="Layer_2" data-name="Layer 2">
    <g id="linkedin-filled">
      <path class="cls-1" d="m19.25,0H2.75C1.23,0,0,1.23,0,2.75v16.5c0,1.52,1.23,2.75,2.75,2.75h16.5c1.52,0,2.75-1.23,2.75-2.75V2.75c0-1.52-1.23-2.75-2.75-2.75ZM6.2,18h-1.45c-.41,0-.74-.34-.75-.75v-8c0-.41.34-.75.75-.75h1.45c.41-.03.76.27.8.68,0,.03,0,.06,0,.08v8c0,.41-.34.75-.76.74-.01,0-.03,0-.04,0Zm-.75-10.85c-.95,0-1.72-.77-1.72-1.72s.77-1.72,1.72-1.72,1.72.77,1.72,1.72-.77,1.72-1.72,1.72h0Zm11.8,10.85h-1.44c-.41,0-.75-.34-.75-.75v-3.87c0-1.1,0-2.51-1.54-2.51s-1.77,1.2-1.77,2.43v3.95c0,.41-.34.75-.75.75h-1.45c-.41,0-.74-.34-.75-.75v-8c0-.41.34-.75.75-.75h1.45c.33-.02.61.24.63.57,0,0,0,0,0,0v.73h0c.58-.99,1.65-1.58,2.79-1.54,3,0,3.54,2,3.54,4.52v4.46c0,.4-.31.74-.71.76Z"/>
    </g>
  </g>
</svg>