<svg xmlns="http://www.w3.org/2000/svg" xmlns:xlink="http://www.w3.org/1999/xlink" viewBox="0,0,256,256" width="24px" height="24px"><g fill="#333" fill-rule="nonzero" stroke="none" stroke-width="1" stroke-linecap="butt" stroke-linejoin="miter" stroke-miterlimit="10" stroke-dasharray="" stroke-dashoffset="0" font-family="none" font-weight="none" font-size="none" text-anchor="none" style="mix-blend-mode: normal"><g transform="scale(10.66667,10.66667)"><path d="M12,2.00977c-3.856,0 -6.99219,3.13814 -6.99219,6.99414c0,4.483 5.9667,11.76527 6.2207,12.07227l0.77148,0.93555l0.77148,-0.93555c0.254,-0.308 6.2207,-7.58927 6.2207,-12.07227c0,-3.857 -3.13619,-6.99414 -6.99219,-6.99414zM12,4.00977c2.753,0 4.99219,2.24114 4.99219,4.99414c0,2.705 -3.11419,7.35727 -4.99219,9.82227c-1.878,-2.463 -4.99219,-7.11327 -4.99219,-9.82227c0,-2.753 2.23919,-4.99414 4.99219,-4.99414zM12,6.5c-1.381,0 -2.5,1.119 -2.5,2.5c0,1.381 1.119,2.5 2.5,2.5c1.381,0 2.5,-1.119 2.5,-2.5c0,-1.381 -1.119,-2.5 -2.5,-2.5z"></path></g></g></svg>