<?xml version="1.0" encoding="UTF-8"?>
<svg id="Layer_2" data-name="Layer 2" xmlns="http://www.w3.org/2000/svg" viewBox="0 0 44.06 34">
  <defs>
    <style>
      .cls-1 {
        fill: #ffffff;
        stroke-width: 0px;
      }
    </style>
  </defs>
  <g id="Layer_1-2" data-name="Layer 1">
    <path class="cls-1" d="m2.03,0C1.31,0,.64.37.27.99-.09,1.61-.09,2.39.27,3.01s1.03,1,1.76.99h40c.72.01,1.39-.37,1.76-.99.36-.62.36-1.39,0-2.02S42.75,0,42.03,0H2.03Zm0,15c-.72-.01-1.39.37-1.76.99-.36.62-.36,1.39,0,2.02s1.03,1,1.76.99h40c.72.01,1.39-.37,1.76-.99.36-.62.36-1.39,0-2.02s-1.03-1-1.76-.99H2.03Zm0,15c-.72-.01-1.39.37-1.76.99-.36.62-.36,1.39,0,2.02s1.03,1,1.76.99h40c.72.01,1.39-.37,1.76-.99.36-.62.36-1.39,0-2.02s-1.03-1-1.76-.99H2.03Z"/>
  </g>
</svg>