<?xml version="1.0" encoding="UTF-8"?>
<svg id="Layer_1" data-name="Layer 1" xmlns="http://www.w3.org/2000/svg" viewBox="0 0 48 48">
  <defs>
    <style>
      .cls-1 {
        fill: #23345B;
        stroke-width: 0px;
      }
    </style>
  </defs>
  <path class="cls-1" d="m24,0C10.77,0,0,10.77,0,24s10.77,24,24,24,24-10.77,24-24S37.23,0,24,0Zm0,3.6c.88,0,1.77.37,2.75,1.27.98.9,1.97,2.34,2.82,4.19.68,1.49,1.19,3.4,1.65,5.35h-14.45c.46-1.95.97-3.86,1.65-5.35.85-1.85,1.84-3.28,2.82-4.19s1.87-1.27,2.75-1.27Zm-7.47,1.42c-.5.78-.96,1.61-1.38,2.53-.91,1.99-1.6,4.34-2.13,6.85h-7.03c2.27-4.26,6.01-7.6,10.54-9.38Zm14.93,0c4.53,1.78,8.27,5.12,10.54,9.38h-7.03c-.53-2.51-1.22-4.86-2.13-6.85-.42-.91-.88-1.75-1.38-2.53ZM4.5,18h8.06c-.25,1.96-.55,3.88-.55,6s.31,4.04.55,6H4.5c-.58-1.9-.9-3.91-.9-6s.32-4.1.9-6Zm11.66,0h15.68c.27,1.94.56,3.86.56,6s-.29,4.06-.56,6h-15.68c-.27-1.94-.56-3.86-.56-6s.29-4.06.56-6Zm19.29,0h8.06c.58,1.9.9,3.91.9,6s-.32,4.1-.9,6h-8.06c.25-1.96.55-3.88.55-6s-.31-4.04-.55-6Zm-29.45,15.6h7.03c.53,2.51,1.22,4.86,2.13,6.85.42.91.88,1.75,1.38,2.53-4.53-1.78-8.27-5.12-10.54-9.38Zm10.78,0h14.45c-.46,1.95-.97,3.86-1.65,5.35-.85,1.85-1.84,3.28-2.82,4.19-.98.9-1.87,1.27-2.75,1.27s-1.77-.37-2.75-1.27c-.98-.9-1.97-2.34-2.82-4.19-.68-1.49-1.19-3.4-1.65-5.35h0Zm18.2,0h7.03c-2.27,4.26-6.01,7.6-10.54,9.38.5-.78.96-1.61,1.38-2.53.91-1.99,1.6-4.34,2.13-6.85Z"/>
</svg>